<svg width="81" height="80" viewBox="0 0 81 80" fill="none" xmlns="http://www.w3.org/2000/svg">
<rect x="1" y="0.5" width="79" height="79" rx="39.5" fill="#F7FBFF"/>
<path d="M26.75 31.25H44.25" stroke="#4395ED" stroke-width="2" stroke-linecap="round" stroke-linejoin="round"/>
<path d="M26.75 38.75H33" stroke="#4395ED" stroke-width="2" stroke-linecap="round" stroke-linejoin="round"/>
<path d="M26.75 46.25H33" stroke="#4395ED" stroke-width="2" stroke-linecap="round" stroke-linejoin="round"/>
<path d="M33 53.75H24.25C22.8693 53.75 21.75 52.6307 21.75 51.25V23.75C21.75 22.3693 22.8693 21.25 24.25 21.25H41.965C42.6276 21.2501 43.263 21.5133 43.7317 21.9817L48.5183 26.7683C48.9867 27.237 49.2499 27.8724 49.25 28.535V32.5" stroke="#4395ED" stroke-width="2" stroke-linecap="round" stroke-linejoin="round"/>
<path fill-rule="evenodd" clip-rule="evenodd" d="M46.7733 55C51.6058 55 55.5233 51.0825 55.5233 46.25C55.5233 41.4175 51.6058 37.5 46.7733 37.5C41.9408 37.5 38.0233 41.4175 38.0233 46.25C38.0233 51.0825 41.9408 55 46.7733 55Z" stroke="#4395ED" stroke-width="2" stroke-linecap="round" stroke-linejoin="round"/>
<path d="M59.25 58.7499L52.9617 52.4365" stroke="#4395ED" stroke-width="2" stroke-linecap="round" stroke-linejoin="round"/>
<rect x="1" y="0.5" width="79" height="79" rx="39.5" stroke="#DEF0FF"/>
</svg>
