<svg width="21" height="20" viewBox="0 0 21 20" fill="none" xmlns="http://www.w3.org/2000/svg">
<path d="M10.2998 0C4.7798 0 0.299805 4.48 0.299805 10C0.299805 15.52 4.7798 20 10.2998 20C15.8198 20 20.2998 15.52 20.2998 10C20.2998 4.48 15.8198 0 10.2998 0ZM5.3698 16.28C5.7998 15.38 8.4198 14.5 10.2998 14.5C12.1798 14.5 14.8098 15.38 15.2298 16.28C13.8698 17.36 12.1598 18 10.2998 18C8.43981 18 6.7298 17.36 5.3698 16.28ZM16.6598 14.83C15.2298 13.09 11.7598 12.5 10.2998 12.5C8.8398 12.5 5.3698 13.09 3.9398 14.83C2.9198 13.49 2.2998 11.82 2.2998 10C2.2998 5.59 5.8898 2 10.2998 2C14.7098 2 18.2998 5.59 18.2998 10C18.2998 11.82 17.6798 13.49 16.6598 14.83ZM10.2998 4C8.3598 4 6.7998 5.56 6.7998 7.5C6.7998 9.44 8.3598 11 10.2998 11C12.2398 11 13.7998 9.44 13.7998 7.5C13.7998 5.56 12.2398 4 10.2998 4ZM10.2998 9C9.4698 9 8.7998 8.33 8.7998 7.5C8.7998 6.67 9.4698 6 10.2998 6C11.1298 6 11.7998 6.67 11.7998 7.5C11.7998 8.33 11.1298 9 10.2998 9Z" fill="#B3B5BA"/>
</svg>
