<svg width="79" height="78" viewBox="0 0 79 78" fill="none" xmlns="http://www.w3.org/2000/svg">
<path d="M21.349 11.9309C17.7153 13.9487 14.7203 16.9449 12.704 20.5794" stroke="#B3B5BA" stroke-width="4" stroke-linecap="round" stroke-linejoin="round"/>
<path d="M18.4125 2.25C10.8301 4.4058 4.9041 10.3331 2.75 17.916" stroke="#B3B5BA" stroke-width="4" stroke-linecap="round" stroke-linejoin="round"/>
<path d="M13.25 60H65.75" stroke="#B3B5BA" stroke-width="4" stroke-linecap="round" stroke-linejoin="round"/>
<path d="M65.75 60C65.75 60 60.5 55.429 60.5 39C60.5 25.875 51.533 14.262 39.5 14.262C27.467 14.262 18.5 25.875 18.5 39C18.5 55.5165 13.25 60 13.25 60" stroke="#B3B5BA" stroke-width="4" stroke-linecap="round" stroke-linejoin="round"/>
<path d="M44.75 70.5C44.75 73.3995 42.3995 75.75 39.5 75.75C36.6005 75.75 34.25 73.3995 34.25 70.5" stroke="#B3B5BA" stroke-width="4" stroke-linecap="round" stroke-linejoin="round"/>
<path d="M39.5 14.262V7.5" stroke="#B3B5BA" stroke-width="4" stroke-linecap="round" stroke-linejoin="round"/>
<path d="M57.651 11.9309C59.456 12.9387 61.1141 14.1893 62.579 15.6479C64.04 17.112 65.291 18.7716 66.296 20.5794" stroke="#B3B5BA" stroke-width="4" stroke-linecap="round" stroke-linejoin="round"/>
<path d="M60.5875 2.25C68.1699 4.4058 74.0959 10.3331 76.25 17.916" stroke="#B3B5BA" stroke-width="4" stroke-linecap="round" stroke-linejoin="round"/>
</svg>
