<svg width="22" height="22" viewBox="0 0 22 22" fill="none" xmlns="http://www.w3.org/2000/svg">
<rect width="22" height="22" rx="11" fill="#F7F7F8"/>
<g clip-path="url(#clip0_14178_7014)">
<path d="M9.25 10.4165H8.08333V11.5832H9.25V10.4165ZM11.5833 10.4165H10.4167V11.5832H11.5833V10.4165ZM13.9167 10.4165H12.75V11.5832H13.9167V10.4165ZM15.0833 6.33317H14.5V5.1665H13.3333V6.33317H8.66667V5.1665H7.5V6.33317H6.91667C6.26917 6.33317 5.75583 6.85817 5.75583 7.49984L5.75 15.6665C5.75 16.3082 6.26917 16.8332 6.91667 16.8332H15.0833C15.725 16.8332 16.25 16.3082 16.25 15.6665V7.49984C16.25 6.85817 15.725 6.33317 15.0833 6.33317ZM15.0833 15.6665H6.91667V9.24984H15.0833V15.6665Z" fill="#93969D"/>
</g>
<defs>
<clipPath id="clip0_14178_7014">
<rect width="14" height="14" fill="white" transform="translate(4 4)"/>
</clipPath>
</defs>
</svg>
