<svg width="25" height="24" viewBox="0 0 25 24" fill="none" xmlns="http://www.w3.org/2000/svg">
<g clip-path="url(#clip0_14125_5276)">
<path d="M19.5 12H21.2C21.66 12 21.88 11.43 21.53 11.13L13.17 3.59997C12.79 3.25997 12.21 3.25997 11.83 3.59997L3.46998 11.13C3.12998 11.43 3.33998 12 3.79998 12H5.49998V19C5.49998 19.55 5.94998 20 6.49998 20C7.04998 20 7.49998 19.55 7.49998 19V18H17.5V19C17.5 19.55 17.95 20 18.5 20C19.05 20 19.5 19.55 19.5 19V12ZM7.70998 9.99997H17.29L17.5 10.19V12H7.49998V10.19L7.70998 9.99997ZM15.07 7.99997H9.92998L12.5 5.68997L15.07 7.99997ZM7.49998 16V14H17.5V16H7.49998Z" fill="#4395ED"/>
</g>
<defs>
<clipPath id="clip0_14125_5276">
<rect width="24" height="24" fill="white" transform="translate(0.5)"/>
</clipPath>
</defs>
</svg>
