<svg width="22" height="22" viewBox="0 0 22 22" fill="none" xmlns="http://www.w3.org/2000/svg">
<rect width="22" height="22" rx="11" fill="#F7F7F8"/>
<g clip-path="url(#clip0_14133_572)">
<path fill-rule="evenodd" clip-rule="evenodd" d="M7.49996 15.6667H14.5C14.8208 15.6667 15.0833 15.9292 15.0833 16.2501C15.0833 16.5709 14.8208 16.8334 14.5 16.8334H7.49996C7.17913 16.8334 6.91663 16.5709 6.91663 16.2501C6.91663 15.9292 7.17913 15.6667 7.49996 15.6667ZM11 8.08342C10.3583 8.08342 9.83329 8.60841 9.83329 9.25008C9.83329 9.89175 10.3583 10.4167 11 10.4167C11.3094 10.4167 11.6061 10.2938 11.8249 10.075C12.0437 9.85625 12.1666 9.5595 12.1666 9.25008C12.1666 8.94066 12.0437 8.64392 11.8249 8.42512C11.6061 8.20633 11.3094 8.08342 11 8.08342ZM11 5.16675C12.9075 5.16675 15.0833 6.60175 15.0833 9.33758C15.0833 11.0759 13.8408 12.9076 11.3558 14.8151C11.1458 14.9784 10.8541 14.9784 10.6441 14.8151C8.15913 12.9017 6.91663 11.0759 6.91663 9.33758C6.91663 6.60175 9.09246 5.16675 11 5.16675Z" fill="#93969D"/>
</g>
<defs>
<clipPath id="clip0_14133_572">
<rect width="14" height="14" fill="white" transform="translate(4 4)"/>
</clipPath>
</defs>
</svg>
