<svg width="19" height="21" viewBox="0 0 19 21" fill="none" xmlns="http://www.w3.org/2000/svg">
<path d="M14.2998 2H11.1198C10.6998 0.84 9.5998 0 8.2998 0C6.9998 0 5.89981 0.84 5.4798 2H2.2998C1.1998 2 0.299805 2.9 0.299805 4V19C0.299805 20.1 1.1998 21 2.2998 21H8.4098C7.8198 20.43 7.3398 19.75 6.9898 19H2.2998V4H4.2998V5C4.2998 6.1 5.1998 7 6.2998 7H10.2998C11.3998 7 12.2998 6.1 12.2998 5V4H14.2998V9.08C15.0098 9.18 15.6798 9.39 16.2998 9.68V4C16.2998 2.9 15.3998 2 14.2998 2ZM8.2998 4C7.7498 4 7.2998 3.55 7.2998 3C7.2998 2.45 7.7498 2 8.2998 2C8.8498 2 9.2998 2.45 9.2998 3C9.2998 3.55 8.8498 4 8.2998 4ZM13.2998 11C10.5398 11 8.2998 13.24 8.2998 16C8.2998 18.76 10.5398 21 13.2998 21C16.0598 21 18.2998 18.76 18.2998 16C18.2998 13.24 16.0598 11 13.2998 11ZM14.5898 18L12.9398 16.35C12.8498 16.26 12.7898 16.13 12.7898 16V13.51C12.7898 13.23 13.0098 13.01 13.2898 13.01C13.5698 13.01 13.7898 13.23 13.7898 13.51V15.8L15.2898 17.3C15.4898 17.5 15.4898 17.81 15.2898 18.01C15.0998 18.2 14.7898 18.2 14.5898 18Z" fill="#B3B5BA"/>
</svg>
